<svg width="100" height="100" viewBox="0 0 100 100" fill="none" xmlns="http://www.w3.org/2000/svg">
<path d="M43.75 6.25H46.875V18.75H43.75V6.25Z" fill="url(#paint0_linear_2_211)"/>
<path d="M53.125 6.25H56.25V18.75H53.125V6.25Z" fill="url(#paint1_linear_2_211)"/>
<path d="M65.625 21.875V0H34.375V21.875H28.125V100H71.875V21.875H65.625ZM37.5 3.125H62.5V21.875H37.5V3.125ZM68.75 96.875H31.25V25H68.75V96.875Z" fill="url(#paint2_linear_2_211)"/>
<path d="M37.4999 62.2124V71.3425L48.4374 76.03V81.5376C46.2852 82.2983 44.9935 84.4994 45.3795 86.7493C45.7656 88.9999 47.7172 90.6441 49.9999 90.6441C52.2826 90.6441 54.2342 88.9999 54.6203 86.7493C55.0063 84.4994 53.7147 82.2983 51.5624 81.5376V70.2126L62.4999 60.0563V53.125H65.6249V43.75H56.2499V53.125H59.3749V58.6922L51.5624 65.9485V37.1094L54.6203 40.1672L56.8297 37.9578L49.9999 31.1279L43.1701 37.9578L45.3795 40.1672L48.4374 37.1094V72.6311L40.6249 69.2825V62.2124C42.7772 61.4517 44.0688 59.2506 43.6828 57.0007C43.2967 54.7501 41.3451 53.1059 39.0624 53.1059C36.7797 53.1059 34.8281 54.7501 34.4421 57.0007C34.056 59.2506 35.3477 61.4517 37.4999 62.2124ZM59.3749 46.875H62.4999V50H59.3749V46.875ZM49.9999 84.375C50.8628 84.375 51.5624 85.0746 51.5624 85.9375C51.5624 86.8004 50.8628 87.5 49.9999 87.5C49.137 87.5 48.4374 86.8004 48.4374 85.9375C48.4374 85.0746 49.137 84.375 49.9999 84.375ZM39.0624 56.25C39.9253 56.25 40.6249 56.9496 40.6249 57.8125C40.6249 58.6754 39.9253 59.375 39.0624 59.375C38.1995 59.375 37.4999 58.6754 37.4999 57.8125C37.4999 56.9496 38.1995 56.25 39.0624 56.25Z" fill="url(#paint3_linear_2_211)"/>
<defs>
<linearGradient id="paint0_linear_2_211" x1="44.0694" y1="6.25" x2="46.779" y2="6.30049" gradientUnits="userSpaceOnUse">
<stop stop-color="#C89AFC"/>
<stop offset="1" stop-color="#7C6AFA"/>
</linearGradient>
<linearGradient id="paint1_linear_2_211" x1="53.4444" y1="6.25" x2="56.154" y2="6.30049" gradientUnits="userSpaceOnUse">
<stop stop-color="#C89AFC"/>
<stop offset="1" stop-color="#7C6AFA"/>
</linearGradient>
<linearGradient id="paint2_linear_2_211" x1="32.5967" y1="-1.0863e-05" x2="70.5032" y2="1.23613" gradientUnits="userSpaceOnUse">
<stop stop-color="#C89AFC"/>
<stop offset="1" stop-color="#7C6AFA"/>
</linearGradient>
<linearGradient id="paint3_linear_2_211" x1="37.5683" y1="31.1279" x2="64.6323" y2="32.1872" gradientUnits="userSpaceOnUse">
<stop stop-color="#C89AFC"/>
<stop offset="1" stop-color="#7C6AFA"/>
</linearGradient>
</defs>
</svg>
