<svg width="40" height="40" viewBox="0 0 40 40" fill="none" xmlns="http://www.w3.org/2000/svg">
<path d="M39.9023 37.3864L38.2047 31.3961C37.87 30.2157 37.9309 28.9531 38.4116 27.8244C39.525 25.2111 40.097 22.3149 39.9875 19.2726C39.6102 8.70975 30.9275 0.19135 20.3617 0.00272783C9.02913 -0.198063 -0.198124 9.0292 0.00266679 20.3617C0.191289 30.9276 8.70969 39.6103 19.2695 39.9875C21.9284 40.0818 24.4748 39.6559 26.8204 38.8041C28.6884 38.1256 30.7176 38.01 32.6282 38.5546L37.3802 39.9054C38.9166 40.3435 40.3373 38.9227 39.9023 37.3864ZM11.0644 19.9997C11.0644 15.0651 15.065 11.0645 19.9996 11.0645C24.9342 11.0645 28.9348 15.0651 28.9348 19.9997C28.9348 24.9343 24.9342 28.9349 19.9996 28.9349C15.065 28.9349 11.0644 24.9343 11.0644 19.9997Z" fill="url(#paint0_linear_2_180)"/>
<path d="M37.8916 29.0203C37.8916 29.0203 37.8217 28.7982 37.6848 28.4027C36.62 25.3848 31.442 12.3181 21.2047 11.1499C25.5704 11.7371 28.9351 15.476 28.9351 19.9999C28.9351 24.9345 24.9345 28.9351 19.9999 28.9351V39.9969C22.3942 39.9969 24.6911 39.5801 26.8208 38.8073C28.6887 38.1289 30.7179 38.0133 32.6285 38.5579L37.3805 39.9086C38.9169 40.3437 40.3376 38.926 39.9026 37.3866L38.205 31.3963C38.0042 30.6936 37.9494 29.9573 38.0377 29.2424L37.8916 29.0203Z" fill="url(#paint1_linear_2_180)"/>
<defs>
<linearGradient id="paint0_linear_2_180" x1="4.85168" y1="-0.000474682" x2="40.3752" y2="2.96995" gradientUnits="userSpaceOnUse">
<stop stop-color="#DF5950"/>
<stop offset="1" stop-color="#451046"/>
</linearGradient>
<linearGradient id="paint1_linear_2_180" x1="22.4238" y1="11.1499" x2="40.2335" y2="12.1815" gradientUnits="userSpaceOnUse">
<stop stop-color="#DF5950"/>
<stop offset="1" stop-color="#451046"/>
</linearGradient>
</defs>
</svg>
